<?xml version="1.0" encoding="UTF-8"?>
<svg id="Layer_1" data-name="Layer 1" xmlns="http://www.w3.org/2000/svg" viewBox="0 0 92 92">
  <defs>
    <style>
      .cls-1 {
        fill: none;
        stroke: #231f20;
        stroke-miterlimit: 10;
        stroke-width: 2px;
      }

      .cls-2 {
        fill: #231f20;
        font-family: MyriadPro-Bold, 'Myriad Pro';
        font-size: 14px;
        font-weight: 700;
      }
    </style>
  </defs>
  <circle class="cls-1" cx="46" cy="46" r="45"/>
  <circle class="cls-1" cx="46" cy="46" r="25"/>
  <text class="cls-2" transform="translate(23.07 26.57) rotate(-46.24)"><tspan x="0" y="0">·</tspan></text>
  <text class="cls-2" transform="translate(25.09 24.44) rotate(-41.46)"><tspan x="0" y="0"> </tspan></text>
  <text class="cls-2" transform="translate(26.68 23.01) rotate(-37.39)"><tspan x="0" y="0"> </tspan></text>
  <text class="cls-2" transform="translate(28 21.56) rotate(-27.73)"><tspan x="0" y="0">A</tspan></text>
  <text class="cls-2" transform="translate(35.4 17.89) rotate(-17.94)"><tspan x="0" y="0"> </tspan></text>
  <text class="cls-2" transform="translate(36.73 17.2) rotate(-10.49)"><tspan x="0" y="0">T</tspan></text>
  <text class="cls-2" transform="translate(43.43 16.08) rotate(-2.18)"><tspan x="0" y="0"> </tspan></text>
  <text class="cls-2" transform="translate(45.39 15.7) rotate(6.93)"><tspan x="0" y="0">K</tspan></text>
  <text class="cls-2" transform="translate(53.01 16.79) rotate(16.17)"><tspan x="0" y="0"> </tspan></text>
  <text class="cls-2" transform="translate(54.97 16.93) rotate(26.69)"><tspan x="0" y="0">O</tspan></text>
  <text class="cls-2" transform="translate(62.97 21.21) rotate(37.13)"><tspan x="0" y="0"> </tspan></text>
  <text class="cls-2" transform="translate(64.69 22.49) rotate(41.2)"><tspan x="0" y="0"> </tspan></text>
  <text class="cls-2" transform="translate(66.36 23.56) rotate(50.21)"><tspan x="0" y="0">B</tspan></text>
  <text class="cls-2" transform="translate(71.07 29.46) rotate(59.24)"><tspan x="0" y="0"> </tspan></text>
  <text class="cls-2" transform="translate(72.37 30.97) rotate(69.01)"><tspan x="0" y="0">A</tspan></text>
  <text class="cls-2" transform="translate(75.15 38.73) rotate(78.75)"><tspan x="0" y="0"> </tspan></text>
  <text class="cls-2" transform="translate(75.82 40.62) rotate(87.82)"><tspan x="0" y="0">B</tspan></text>
  <text class="cls-2" transform="translate(75.96 48.16) rotate(96.75)"><tspan x="0" y="0"> </tspan></text>
  <text class="cls-2" transform="translate(75.77 50.25) rotate(101.88)"><tspan x="0" y="0">I</tspan></text>
  <text class="cls-2" transform="translate(75.11 53.44) rotate(107.01)"><tspan x="0" y="0"> </tspan></text>
  <text class="cls-2" transform="translate(74.8 55.41) rotate(116.03)"><tspan x="0" y="0">C</tspan></text>
  <text class="cls-2" transform="translate(71.41 62.02) rotate(124.99)"><tspan x="0" y="0"> </tspan></text>
  <text class="cls-2" transform="translate(70.2 63.79) rotate(129.06)"><tspan x="0" y="0"> </tspan></text>
  <text class="cls-2" transform="translate(68.9 65.47) rotate(133.85)"><tspan x="0" y="0">·</tspan></text>
  <text class="cls-2" transform="translate(66.9 67.57) rotate(138.59)"><tspan x="0" y="0"> </tspan></text>
  <text class="cls-2" transform="translate(65.29 69.02) rotate(142.69)"><tspan x="0" y="0"> </tspan></text>
  <text class="cls-2" transform="translate(63.97 70.46) rotate(152.36)"><tspan x="0" y="0">A</tspan></text>
  <text class="cls-2" transform="translate(56.55 74.13) rotate(162.15)"><tspan x="0" y="0"> </tspan></text>
  <text class="cls-2" transform="translate(55.22 74.81) rotate(169.6)"><tspan x="0" y="0">T</tspan></text>
  <text class="cls-2" transform="translate(48.52 75.93) rotate(177.91)"><tspan x="0" y="0"> </tspan></text>
  <text class="cls-2" transform="translate(46.56 76.3) rotate(-172.98)"><tspan x="0" y="0">K</tspan></text>
  <text class="cls-2" transform="translate(38.97 75.21) rotate(-163.79)"><tspan x="0" y="0"> </tspan></text>
  <text class="cls-2" transform="translate(36.99 75.06) rotate(-153.23)"><tspan x="0" y="0">O</tspan></text>
  <text class="cls-2" transform="translate(29 70.76) rotate(-142.78)"><tspan x="0" y="0"> </tspan></text>
  <text class="cls-2" transform="translate(27.28 69.48) rotate(-138.72)"><tspan x="0" y="0"> </tspan></text>
  <text class="cls-2" transform="translate(25.61 68.4) rotate(-129.7)"><tspan x="0" y="0">B</tspan></text>
  <text class="cls-2" transform="translate(20.9 62.5) rotate(-120.68)"><tspan x="0" y="0"> </tspan></text>
  <text class="cls-2" transform="translate(19.6 60.99) rotate(-110.9)"><tspan x="0" y="0">A</tspan></text>
  <text class="cls-2" transform="translate(16.84 53.23) rotate(-101.16)"><tspan x="0" y="0"> </tspan></text>
  <text class="cls-2" transform="translate(16.17 51.34) rotate(-92.09)"><tspan x="0" y="0">B</tspan></text>
  <text class="cls-2" transform="translate(16.05 43.79) rotate(-83.16)"><tspan x="0" y="0"> </tspan></text>
  <text class="cls-2" transform="translate(16.24 41.7) rotate(-78.03)"><tspan x="0" y="0">I</tspan></text>
  <text class="cls-2" transform="translate(16.91 38.52) rotate(-72.9)"><tspan x="0" y="0"> </tspan></text>
  <text class="cls-2" transform="translate(17.21 36.55) rotate(-63.88)"><tspan x="0" y="0">C</tspan></text>
  <text class="cls-2" transform="translate(20.62 29.94) rotate(-54.93)"><tspan x="0" y="0"> </tspan></text>
  <text class="cls-2" transform="translate(21.83 28.17) rotate(-50.85)"><tspan x="0" y="0"> </tspan></text>
</svg>