<?xml version="1.0" encoding="UTF-8"?>
<svg id="Layer_1" data-name="Layer 1" xmlns="http://www.w3.org/2000/svg" viewBox="0 0 1247.87 127.18">
  <defs>
    <style>
      .cls-1 {
        fill: #f7e193;
      }
    </style>
  </defs>
  <path class="cls-1" d="m0,125.42L55.25,1.41h34.37l55.04,124.01h-33.32l-13.07-29.36h-51.45l-13.18,29.36H0Zm57.15-52.21h30.89l-15.71-43.15-15.18,43.15Z"/>
  <path class="cls-1" d="m139.96,25.14V1.41h112.08v23.73h-39.96v100.28h-32.16V25.14h-39.96Z"/>
  <path class="cls-1" d="m277.71,125.42V1.41h32.16v40.69L345.09,1.41h37.11l-56.3,61.35,69.69,62.67h-41.01l-44.7-42.1v42.1h-32.16Z"/>
  <path class="cls-1" d="m393.01,63.68c0-11.59,3.34-22.27,10.02-32.02,6.68-9.75,15.8-17.46,27.36-23.14,11.56-5.68,24.23-8.52,38.01-8.52s26.57,2.84,38.17,8.52c11.6,5.68,20.73,13.4,27.41,23.14,6.68,9.75,10.02,20.42,10.02,32.02s-3.34,22.1-10.02,31.84c-6.68,9.73-15.82,17.44-27.41,23.13-11.6,5.69-24.32,8.53-38.17,8.53-10.33,0-20.16-1.69-29.47-5.06-9.31-3.37-17.33-7.9-24.04-13.59-6.71-5.69-12.04-12.44-15.97-20.27-3.94-7.83-5.9-16.02-5.9-24.58Zm31.53,0c0,10.72,4.25,19.86,12.76,27.4,8.5,7.54,18.87,11.31,31.1,11.31s22.72-3.77,31.26-11.31c8.54-7.54,12.81-16.68,12.81-27.4s-4.29-19.89-12.86-27.49c-8.58-7.6-18.98-11.41-31.21-11.41s-22.6,3.79-31.1,11.36c-8.51,7.57-12.76,16.75-12.76,27.53Z"/>
  <path class="cls-1" d="m627.18,125.42V1.41h58.9c13.27,0,23.86,3.12,31.75,9.37s11.83,14.7,11.83,25.37c0,4.64-1.57,9.12-4.7,13.44-3.13,4.32-8.07,7.6-14.81,9.83,8.76,1.92,15.49,5.65,20.17,11.19,4.69,5.54,7.03,11.16,7.03,16.85,0,10.61-4.29,19.59-12.88,26.94-8.58,7.35-19.96,11.03-34.14,11.03h-63.17Zm31.53-74.62h24.84c4.09,0,7.44-1.22,10.04-3.67,2.61-2.44,3.91-5.54,3.91-9.3,0-4.05-1.22-7.27-3.65-9.65-2.43-2.38-5.94-3.58-10.52-3.58h-24.63v26.19Zm0,51.42h30.54c5,0,8.91-1.54,11.73-4.61,2.82-3.08,4.23-6.64,4.23-10.68s-1.46-7.29-4.38-10.28c-2.92-2.99-6.99-4.48-12.21-4.48h-29.91v30.06Z"/>
  <path class="cls-1" d="m748.06,125.42L803.31,1.41h34.37l55.04,124.01h-33.32l-13.07-29.36h-51.45l-13.18,29.36h-33.63Zm57.15-52.21h30.89l-15.71-43.15-15.18,43.15Z"/>
  <path class="cls-1" d="m911.22,125.42V1.41h58.9c13.28,0,23.86,3.12,31.75,9.37,7.89,6.25,11.83,14.7,11.83,25.37,0,4.64-1.57,9.12-4.7,13.44-3.13,4.32-8.07,7.6-14.81,9.83,8.76,1.92,15.49,5.65,20.17,11.19,4.69,5.54,7.03,11.16,7.03,16.85,0,10.61-4.29,19.59-12.88,26.94-8.58,7.35-19.96,11.03-34.14,11.03h-63.17Zm31.53-74.62h24.84c4.09,0,7.43-1.22,10.04-3.67,2.61-2.44,3.91-5.54,3.91-9.3,0-4.05-1.22-7.27-3.65-9.65-2.43-2.38-5.94-3.58-10.52-3.58h-24.63v26.19Zm0,51.42h30.54c5,0,8.91-1.54,11.73-4.61,2.82-3.08,4.23-6.64,4.23-10.68s-1.46-7.29-4.39-10.28c-2.92-2.99-6.99-4.48-12.21-4.48h-29.91v30.06Z"/>
  <path class="cls-1" d="m1050.87,125.42V1.41h31.53v124.01h-31.53Z"/>
  <path class="cls-1" d="m1110.8,63.72c0-11.6,3.23-22.28,9.69-32.04s15.4-17.48,26.83-23.16c11.43-5.68,24.11-8.53,38.02-8.53,13,0,24.92,2.36,35.74,7.08,10.82,4.72,19.54,11.12,26.15,19.2l-25.62,14.68c-4.08-4.98-9.28-8.92-15.6-11.82s-13.22-4.35-20.67-4.35c-12.3,0-22.55,3.77-30.74,11.29-8.19,7.53-12.28,16.74-12.28,27.64s4.09,20,12.28,27.47c8.19,7.47,18.43,11.21,30.74,11.21,7.59,0,14.64-1.55,21.14-4.66,6.5-3.1,11.83-7.26,15.97-12.48l25.41,14.77c-6.61,8.38-15.38,15-26.31,19.86-10.93,4.86-23,7.29-36.22,7.29-10.4,0-20.24-1.69-29.52-5.05-9.28-3.37-17.2-7.9-23.76-13.58-6.56-5.68-11.75-12.42-15.55-20.21-3.81-7.79-5.71-16-5.71-24.61Z"/>
</svg>